HIERARCHY
ROOT Hips
{
	OFFSET 0.000000 0.000000 0.000000
	CHANNELS 6 Xposition Yposition Zposition Zrotation Yrotation Xrotation 
	JOINT LHipJoint
	{
		OFFSET 0.000000 0.000000 0.000000
		CHANNELS 3 Zrotation Yrotation Xrotation
		JOINT LeftUpLeg
		{
			OFFSET 1.363060 -1.794630 0.839290
			CHANNELS 3 Zrotation Yrotation Xrotation
			JOINT LeftLeg
			{
				OFFSET 2.448110 -6.726130 0.000000
				CHANNELS 3 Zrotation Yrotation Xrotation
				JOINT LeftFoot
				{
					OFFSET 2.562200 -7.039590 0.000000
					CHANNELS 3 Zrotation Yrotation Xrotation
					JOINT LeftToeBase
					{
						OFFSET 0.157640 -0.433110 2.322550
						CHANNELS 3 Zrotation Yrotation Xrotation
						End Site
						{
							OFFSET 0.000000 0.000000 0.000000
						}
					}
				}
			}
		}
	}
	JOINT RHipJoint
	{
		OFFSET 0.000000 0.000000 0.000000
		CHANNELS 3 Zrotation Yrotation Xrotation
		JOINT RightUpLeg
		{
			OFFSET -1.305520 -1.794630 0.839290
			CHANNELS 3 Zrotation Yrotation Xrotation
			JOINT RightLeg
			{
				OFFSET -2.542530 -6.985550 0.000000
				CHANNELS 3 Zrotation Yrotation Xrotation
				JOINT RightFoot
				{
					OFFSET -2.568260 -7.056230 0.000000
					CHANNELS 3 Zrotation Yrotation Xrotation
					JOINT RightToeBase
					{
						OFFSET -0.164730 -0.452590 2.363150
						CHANNELS 3 Zrotation Yrotation Xrotation
						End Site
						{
							OFFSET 0.000000 0.000000 0.000000
						}
					}
				}
			}
		}
	}
	JOINT LowerBack
	{
		OFFSET 0.000000 0.000000 0.000000
		CHANNELS 3 Zrotation Yrotation Xrotation
		JOINT Spine
		{
			OFFSET 0.028270 2.035590 -0.193380
			CHANNELS 3 Zrotation Yrotation Xrotation
			JOINT Spine1
			{
				OFFSET 0.056720 2.048850 -0.042750
				CHANNELS 3 Zrotation Yrotation Xrotation
				JOINT Neck
				{
					OFFSET 0.000000 0.000000 0.000000
					CHANNELS 3 Zrotation Yrotation Xrotation
					JOINT Neck1
					{
						OFFSET -0.054170 1.746240 0.172020
						CHANNELS 3 Zrotation Yrotation Xrotation
						JOINT Head
						{
							OFFSET 0.104070 1.761360 -0.123970
							CHANNELS 3 Zrotation Yrotation Xrotation
							End Site
							{
								OFFSET 0.000000 0.000000 0.000000
							}
						}
					}
				}
				JOINT LeftShoulder
				{
					OFFSET 0.000000 0.000000 0.000000
					CHANNELS 3 Zrotation Yrotation Xrotation
					JOINT LeftArm
					{
						OFFSET 3.362410 1.200890 -0.311210
						CHANNELS 3 Zrotation Yrotation Xrotation
						JOINT LeftForeArm
						{
							OFFSET 4.983000 -0.000000 -0.000000
							CHANNELS 3 Zrotation Yrotation Xrotation
							JOINT LeftHand
							{
								OFFSET 3.483560 -0.000000 -0.000000
								CHANNELS 3 Zrotation Yrotation Xrotation
								JOINT LeftFingerBase
								{
									OFFSET 0.000000 0.000000 0.000000
									CHANNELS 3 Zrotation Yrotation Xrotation
									JOINT LeftHandIndex1
									{
										OFFSET 0.715260 -0.000000 -0.000000
										CHANNELS 3 Zrotation Yrotation Xrotation
										End Site
										{
											OFFSET 0.000000 0.000000 0.000000
										}
									}
								}
								JOINT LThumb
								{
									OFFSET 0.000000 0.000000 0.000000
									CHANNELS 3 Zrotation Yrotation Xrotation
									End Site
									{
										OFFSET 0.000000 0.000000 0.000000
									}
								}
							}
						}
					}
				}
				JOINT RightShoulder
				{
					OFFSET 0.000000 0.000000 0.000000
					CHANNELS 3 Zrotation Yrotation Xrotation
					JOINT RightArm
					{
						OFFSET -3.136600 1.374050 -0.404650
						CHANNELS 3 Zrotation Yrotation Xrotation
						JOINT RightForeArm
						{
							OFFSET -5.241900 -0.000000 -0.000000
							CHANNELS 3 Zrotation Yrotation Xrotation
							JOINT RightHand
							{
								OFFSET -3.444170 -0.000000 -0.000000
								CHANNELS 3 Zrotation Yrotation Xrotation
								JOINT RightFingerBase
								{
									OFFSET 0.000000 0.000000 0.000000
									CHANNELS 3 Zrotation Yrotation Xrotation
									JOINT RightHandIndex1
									{
										OFFSET -0.622530 -0.000000 -0.000000
										CHANNELS 3 Zrotation Yrotation Xrotation
										End Site
										{
											OFFSET 0.000000 0.000000 0.000000
										}
									}
								}
								JOINT RThumb
								{
									OFFSET 0.000000 0.000000 0.000000
									CHANNELS 3 Zrotation Yrotation Xrotation
									End Site
									{
										OFFSET 0.000000 0.000000 0.000000
									}
								}
							}
						}
					}
				}
			}
		}
	}
}
MOTION
Frames: 7
Frame Time: 0.008333
44.875830 17.794947 5.127275 -79.097275 -86.476542 87.929869 -1.068593 -1.069016 -0.748081 -13.551494 -7.822861 -4.861650 -0.351065 4.001492 10.071412 0.045717 1.905781 1.632742 0.445800 -4.284000 -11.877100 0.241946 0.961540 -1.516018 23.895198 4.118774 -7.573003 -0.334010 -5.819345 14.839281 1.749344 -12.274265 -7.300393 -0.807400 -5.734400 16.015600 -0.768397 0.114095 -0.949462 1.516408 0.290177 -6.350804 8.033700 0.044161 -2.805160 -5.054831 -0.507957 -16.058156 2.093351 -0.055826 12.175047 1.572100 -0.411900 8.873400 6.669465 2.649651 0.474448 -93.148832 4.426076 9.349422 11.545815 -29.866300 -3.284607 1.623912 2.701911 29.473072 10.745938 23.410409 3.731500 -7.125000 0.000000 0.000000 -17.492300 49.695500 -2.081800 -3.061272 -3.750592 -2.023403 82.678524 -0.068772 11.151239 -10.996334 22.983471 -2.315517 -0.630726 0.374038 13.420549 -15.786764 -24.319580 6.412300 7.125000 0.000000 0.000000 15.283500 -54.729000 -3.717400 
44.867963 17.792756 5.120504 -78.605494 -86.490345 87.460262 -1.069438 -1.074593 -0.753937 -13.561572 -7.884724 -4.893134 -0.344718 4.037652 10.171405 0.040660 1.921491 1.497850 0.404800 -4.084600 -11.314900 0.240874 0.959163 -1.515258 23.906129 4.149507 -7.597282 -0.338538 -5.838964 14.894465 1.734346 -12.199049 -7.343649 -0.855000 -5.897100 16.486100 -0.748888 0.105854 -0.947244 1.507279 0.282913 -6.338820 8.013852 0.035373 -2.772344 -5.106984 -0.538985 -16.085245 2.133451 -0.085608 12.179037 1.596900 -0.425100 8.880800 6.682409 2.649392 0.475869 -93.242184 4.481937 9.114138 11.382272 -29.673701 -3.232862 1.627487 2.674542 29.741999 10.695663 23.147935 3.670600 -7.125000 0.000000 0.000000 -17.440300 49.457000 -1.970500 -3.071721 -3.749900 -2.018278 82.811060 -0.180054 11.054744 -10.931373 22.886073 -2.282861 -0.636351 0.371307 13.592302 -15.769033 -24.693846 6.491300 7.125000 0.000000 0.000000 15.498200 -55.085200 -3.907300 
44.857706 17.790466 5.112935 -78.230051 -86.539272 87.122077 -1.069880 -1.077869 -0.756624 -13.597729 -7.878200 -4.887915 -0.344885 4.036340 10.168941 0.046310 1.879825 1.401820 0.363200 -3.871500 -10.715500 0.240537 0.957655 -1.516200 23.890772 4.212436 -7.603967 -0.341478 -5.855711 14.938479 1.759903 -12.337670 -7.463606 -0.859100 -5.910600 16.525200 -0.779123 0.093611 -0.993453 1.496433 0.270688 -6.324910 8.008243 0.024566 -2.709673 -5.098194 -0.531186 -16.124155 2.142439 -0.076954 12.215892 1.601300 -0.419900 8.899900 6.693121 2.650868 0.476294 -93.322092 4.541768 8.926094 11.246168 -29.530942 -3.200024 1.648681 2.691287 29.963086 10.624755 23.383986 3.683200 -7.125000 0.000000 0.000000 -17.593900 49.649200 -2.074000 -3.080295 -3.753527 -2.010621 82.918848 -0.258780 10.981064 -10.789451 22.676990 -2.246433 -0.621283 0.387602 13.743756 -15.742906 -23.570738 6.215600 7.125000 0.000000 0.000000 14.953500 -53.997800 -3.365200 
44.850038 17.788972 5.104770 -77.440208 -86.512000 86.349286 -1.071847 -1.081910 -0.758524 -13.523950 -7.905520 -4.872964 -0.345200 4.032696 10.163359 0.052763 1.839332 1.369740 0.325800 -3.668700 -10.146400 0.236291 0.952286 -1.516264 23.965364 4.264140 -7.591190 -0.341618 -5.858598 14.942060 1.764096 -12.358877 -7.430933 -0.843600 -5.858500 16.374500 -0.730454 0.081119 -0.969520 1.493727 0.256246 -6.316510 7.980672 0.013286 -2.698885 -5.043010 -0.503356 -16.095893 2.089513 -0.050554 12.154404 1.574500 -0.407700 8.868900 6.710094 2.644764 0.477119 -93.401979 4.586144 8.732147 11.074686 -29.333520 -3.149813 1.659917 2.677487 30.202571 10.582287 23.284477 3.650700 -7.125000 0.000000 0.000000 -17.597700 49.553300 -2.032000 -3.084350 -3.757583 -2.005735 83.029342 -0.332719 10.761155 -10.619002 22.411773 -2.180117 -0.618107 0.396931 14.131383 -15.903495 -23.358081 6.233400 7.125000 0.000000 0.000000 14.694200 -53.824800 -3.242200 
44.841275 17.787678 5.095907 -76.046935 -86.540123 84.967958 -1.079933 -1.093068 -0.764637 -13.550094 -7.986938 -4.880094 -0.338950 4.065724 10.257253 0.042731 1.887715 1.270306 0.304700 -3.549100 -9.811400 0.229234 0.941839 -1.512526 23.972562 4.276931 -7.581994 -0.341562 -5.865481 14.955964 1.792924 -12.515473 -7.577522 -0.844500 -5.861500 16.383200 -0.794436 0.048201 -0.955960 1.495141 0.226188 -6.310148 8.067630 -0.016242 -2.663542 -5.838327 -0.587373 -16.665379 3.412621 -0.026033 12.870380 2.261700 -0.327000 9.251200 6.688747 2.697981 0.468543 -93.502534 4.657653 8.651789 10.923007 -29.173026 -3.111327 1.683271 2.699632 30.382216 10.512147 23.554608 3.667500 -7.125000 0.000000 0.000000 -17.764500 49.772200 -2.150400 -3.123538 -3.699020 -1.995207 83.097096 -0.456803 10.814457 -10.548937 22.301529 -2.134774 -0.635001 0.379603 14.059895 -15.654221 -24.479435 6.387900 7.125000 0.000000 0.000000 15.505400 -54.855100 -3.821400 
44.831815 17.786383 5.086049 -75.875466 -86.529237 84.818494 -1.078842 -1.093779 -0.765949 -13.495202 -7.960392 -4.876593 -0.338428 4.066879 10.261683 0.048652 1.845357 1.167093 0.279800 -3.401900 -9.399700 0.226894 0.940716 -1.515363 24.039997 4.385175 -7.491889 -0.334550 -5.841291 14.883806 1.814720 -12.630266 -7.593423 -0.848300 -5.874400 16.420500 -0.777135 0.027343 -0.968933 1.498121 0.200617 -6.291651 8.077061 -0.032879 -2.610194 -5.873172 -0.592543 -16.642021 3.423877 -0.022900 12.793576 2.273000 -0.324800 9.214200 6.708166 2.699977 0.471459 -93.598793 4.699787 8.300878 10.752288 -28.964059 -3.056163 1.659704 2.686328 30.735390 10.150271 23.277620 3.507600 -7.125000 0.000000 0.000000 -17.964600 49.480900 -2.044000 -3.132717 -3.700331 -1.988325 83.181656 -0.614405 10.785072 -10.471417 22.188507 -2.109274 -0.632723 0.383258 14.300404 -15.510710 -24.306156 6.283200 7.125000 0.000000 0.000000 15.559700 -54.658300 -3.760000 
44.822753 17.785587 5.076887 -76.458961 -86.514686 85.418995 -1.074154 -1.085770 -0.765297 -13.432479 -8.044962 -4.782004 -0.339432 4.061724 10.244138 0.046090 1.848341 1.005172 0.217800 -3.004400 -8.291000 0.228014 0.945849 -1.521299 24.119982 4.469557 -7.440607 -0.333901 -5.840853 14.881990 1.826817 -12.695923 -7.640686 -0.842100 -5.853400 16.359600 -0.814335 0.092139 -0.984823 1.494905 0.288794 -6.260855 8.126990 0.009741 -2.531587 -5.879713 -0.686672 -16.675200 3.443023 -0.145939 12.727172 2.264000 -0.376700 9.203800 6.731467 2.713845 0.473232 -93.688939 4.630092 8.208591 10.534018 -28.725486 -2.994592 1.679810 2.659055 31.065800 10.178858 23.095415 3.484600 -7.125000 0.000000 0.000000 -17.878800 49.321800 -1.961900 -3.143920 -3.706571 -1.989194 83.022624 -1.165528 11.152573 -10.526547 22.305489 -2.148231 -0.624192 0.387497 13.802677 -15.368041 -23.623219 6.065200 7.125000 0.000000 0.000000 15.354000 -53.975400 -3.450100 
